<?xml version="1.0" encoding="UTF-8"?>
<svg id="Layer_1" xmlns="http://www.w3.org/2000/svg" version="1.1" viewBox="0 0 288 216">
  <!-- Generator: Adobe Illustrator 29.5.1, SVG Export Plug-In . SVG Version: 2.1.0 Build 141)  -->
  <defs>
    <style>
      .st0, .st1 {
        fill: #c49a6c;
      }

      .st2, .st3, .st4 {
        fill: #231f20;
      }

      .st5 {
        fill: #8b5e3c;
        stroke-width: 5.03px;
      }

      .st5, .st6, .st7, .st8, .st1, .st9, .st10, .st3, .st11, .st12, .st13, .st14, .st4, .st15 {
        stroke: #231f20;
      }

      .st5, .st6, .st7, .st1, .st9, .st10, .st11, .st14, .st4 {
        stroke-miterlimit: 10;
      }

      .st6, .st7, .st8, .st9, .st12, .st13, .st14, .st15 {
        fill: none;
      }

      .st6, .st8, .st3 {
        stroke-width: 1.78px;
      }

      .st6, .st8, .st3, .st12, .st13, .st15 {
        stroke-linecap: round;
      }

      .st16 {
        fill: #fff;
      }

      .st7 {
        stroke-width: 1.71px;
      }

      .st8, .st3, .st12, .st13, .st15 {
        stroke-linejoin: round;
      }

      .st17 {
        fill: #fbd3e0;
      }

      .st1 {
        stroke-width: 3.77px;
      }

      .st9, .st15 {
        stroke-width: 2.31px;
      }

      .st10 {
        fill: #edad58;
        stroke-width: 3px;
      }

      .st11 {
        fill: #9ca9b0;
        stroke-width: 5.03px;
      }

      .st12 {
        stroke-width: 1.93px;
      }

      .st13 {
        stroke-width: 1.9px;
      }

      .st14 {
        stroke-width: 2.48px;
      }

      .st4 {
        stroke-width: 1.6px;
      }
    </style>
  </defs>
  <g>
    <path class="st2" d="M89.21,76.22c-2.66-.87-2.84-4.53-.3-5.69,6.9-3.13,15.97-9.34,18.89-20.95.22-.89,1.49-.89,1.69,0,1.71,7.39,2.16,20.02-12.38,28.2-.73.41-1.61.48-2.41.22l-5.5-1.79Z"/>
    <g>
      <path class="st11" d="M262.59,112.6c1.96-9.99-6.03-19.41-17.67-20.82l-188.25-22.84c-13.76-1.67-25.52,8.51-23.56,20.37l13.63,82.27h204.3l11.55-58.98Z"/>
      <path class="st5" d="M70.67,198.69l160.49-8.88c9.66-.53,17.62-6.73,19.24-14.96l.64-3.27-205.18-5.35,2.82,17.05c1.54,9.3,11.12,16.02,21.99,15.42Z"/>
    </g>
    <g>
      <path class="st0" d="M96.45,87.04s0,0,0,0c-4.46,1.39-9.25-1.15-10.27-5.08-.24-.9-.48-1.8-.71-2.7-.93-3.9,1.49-8.09,5.34-9.32t0,0c3.93-1.22,8.03.97,9.46,4.88.33.89.67,1.78,1.03,2.67,1.64,3.86-.39,8.12-4.84,9.54Z"/>
      <path class="st9" d="M96.45,87.04s0,0,0,0c-4.46,1.39-9.25-1.15-10.27-5.08-.24-.9-.48-1.8-.71-2.7-.93-3.9,1.49-8.09,5.34-9.32t0,0c3.93-1.22,8.03.97,9.46,4.88.33.89.67,1.78,1.03,2.67,1.64,3.86-.39,8.12-4.84,9.54Z"/>
    </g>
    <g>
      <path class="st0" d="M46.19,91.35s0,0,0,0c-4.67-.95-7.36-5.04-6.11-8.99.55-1.84,1.06-3.68,1.52-5.53,1.01-4.01,4.86-6.65,8.9-5.85t0,0c3.98.8,6.7,4.73,6.22,8.74-.26,1.85-.52,3.7-.79,5.56-.56,4.02-5.05,6.98-9.74,6.08Z"/>
      <path class="st14" d="M46.19,91.35s0,0,0,0c-4.67-.95-7.36-5.04-6.11-8.99.55-1.84,1.06-3.68,1.52-5.53,1.01-4.01,4.86-6.65,8.9-5.85t0,0c3.98.8,6.7,4.73,6.22,8.74-.26,1.85-.52,3.7-.79,5.56-.56,4.02-5.05,6.98-9.74,6.08Z"/>
    </g>
    <g>
      <path class="st10" d="M67.97,97.9l-21.75-24.57c-1.1-1.24-.38-3.22,1.26-3.46l44.44-6.62c1.64-.24,2.91,1.43,2.21,2.94l-13.64,29.84c-2.27,4.97-8.9,5.96-12.52,1.87Z"/>
      <g>
        <path class="st1" d="M60.71,20.5c1.38.13,2.77-.08,4.05-.6,2.58-1.05,7.72-2.13,14.9,1,0,0,18.58,7.15,16.98,28.39-1,13.32-8.8,18.76-25.31,28.39-18.52-4.41-25.8-5.13-32.45-17.68-5.97-11.26-1.07-23.84,4.12-31.47,0,0,8.91-8.88,17.72-8.02Z"/>
        <path class="st3" d="M99.53,36.6c-4.42-.78-17.82-4.3-20.71-18.7-.24-1.19.66-2.31,1.87-2.35,5.29-.18,18.12-1.22,20.42,2.31,2.54,3.9,2.5,12.99.58,17.55-.36.85-1.25,1.35-2.16,1.19Z"/>
        <path class="st3" d="M32.43,46.6c4-2.03,15.79-9.31,14.36-23.93-.12-1.21-1.31-2.02-2.48-1.7-5.11,1.37-17.69,4.12-18.86,8.16-1.3,4.48,1.39,13.15,4.56,16.96.59.71,1.59.93,2.42.51Z"/>
      </g>
      <g>
        <g>
          <circle class="st2" cx="51.44" cy="37.58" r="3.92"/>
          <circle class="st16" cx="52.32" cy="36.4" r="1.05"/>
        </g>
        <g>
          <circle class="st2" cx="78.72" cy="33.52" r="3.92"/>
          <circle class="st16" cx="79.6" cy="32.33" r="1.05"/>
        </g>
      </g>
      <g>
        <path class="st4" d="M69.18,44.42c-1.26,1.04-3.15,1.33-4.67.71-2.2-.9-5.06-2.28-5.22-3.4h0c-.27-1.83,1.35-3.61,3.61-3.94l5.62-.84c2.26-.34,4.33.89,4.6,2.72h0c.17,1.12-2.13,3.25-3.94,4.75Z"/>
        <path class="st6" d="M50.01,51.64s1.95,13.99,17.59.9l-1.03-6.88"/>
        <path class="st6" d="M84.18,46.55s2.21,13.95-16.57,5.99l-1.03-6.88"/>
        <path class="st2" d="M55.99,58.11s4.23,2.29,4.64,6.22c-.14.22,18.16-2.71,18.16-2.71,0,0-.28-5.61,3.37-8.01,0,0-4.51,5.2-14.55-1.08,0,0-5.41,5.51-11.61,5.58Z"/>
        <g>
          <path class="st17" d="M72.67,81.72s0,0,0,0c-5.76.83-10.91-2.9-11.16-7.43-.21-3.07-.37-6.1-.57-9.13-.17-3.5,2.36-6.81,5.85-7.33,1.23-.18,2.47-.37,3.7-.55,3.53-.52,6.77,1.93,7.52,5.44.63,3.03,1.44,6.07,2.34,9.08,1.42,4.41-1.97,9.02-7.69,9.93Z"/>
          <path class="st7" d="M72.67,81.72s0,0,0,0c-5.76.83-10.91-2.9-11.16-7.43-.21-3.07-.37-6.1-.57-9.13-.17-3.5,2.36-6.81,5.85-7.33,1.23-.18,2.47-.37,3.7-.55,3.53-.52,6.77,1.93,7.52,5.44.63,3.03,1.44,6.07,2.34,9.08,1.42,4.41-1.97,9.02-7.69,9.93Z"/>
        </g>
        <line class="st8" x1="70.32" y1="68.26" x2="68.9" y2="58.71"/>
      </g>
    </g>
    <line class="st15" x1="45.65" y1="86.47" x2="43.79" y2="90.17"/>
    <line class="st12" x1="48.76" y1="87.05" x2="48.76" y2="91.32"/>
    <line class="st13" x1="94.26" y1="83.28" x2="95.14" y2="86.97"/>
    <line class="st15" x1="99.22" y1="84.89" x2="96.73" y2="81.05"/>
  </g>
  <g>
    <path class="st2" d="M65.15,118.34c-.52.69-1.17,1.36-1.95,2.03-.79.67-1.7,1.25-2.72,1.74-1.03.49-2.16.81-3.41.96-1.66.2-3.16.13-4.49-.22-1.33-.35-2.5-.94-3.49-1.76-1-.82-1.81-1.86-2.44-3.09-.63-1.24-1.06-2.64-1.29-4.21-.29-2.03-.16-3.89.42-5.58s1.57-3.09,2.99-4.2c1.42-1.11,3.23-1.81,5.45-2.08,1.81-.22,3.53-.09,5.14.39,1.61.48,2.94,1.36,3.98,2.61-.33.39-.77.83-1.31,1.34-.54.5-1.09.98-1.66,1.44-.57.46-1.06.84-1.46,1.15-.05-.1-.17-.27-.37-.51-.2-.24-.46-.49-.79-.75-.33-.26-.73-.47-1.18-.63-.45-.16-.96-.2-1.52-.14-.6.07-1.1.27-1.51.59-.41.32-.74.73-.97,1.24-.24.51-.39,1.08-.46,1.71-.07.64-.06,1.31.03,2.01.09.72.25,1.39.46,2.03.21.64.48,1.19.81,1.66.33.47.73.81,1.21,1.04.47.23,1.03.3,1.66.23.51-.06,1.01-.21,1.48-.45s.93-.53,1.36-.89c.43-.36.83-.76,1.19-1.21.51.24,1.09.56,1.71.97.63.41,1.23.83,1.8,1.28.57.45,1.02.88,1.36,1.29Z"/>
    <path class="st2" d="M74.81,121.24c-1.43.13-2.76.07-3.98-.17-1.22-.24-2.22-.72-3-1.45-.79-.73-1.25-1.75-1.39-3.08-.14-1.34.16-2.46.92-3.35.76-.89,1.8-1.58,3.14-2.06,1.33-.48,2.77-.8,4.31-.93.55-.05,1.09-.06,1.62-.03.52.03.98.09,1.39.17.41.08.71.18.91.28-.03-.24-.12-.5-.26-.79-.14-.28-.32-.51-.54-.68-.36-.31-.81-.57-1.35-.76-.54-.19-1.27-.25-2.17-.17-.89.08-1.67.34-2.35.77-.68.44-1.18.89-1.5,1.37-2.04-.93-3.06-1.38-5.11-2.29.46-.72,1.14-1.38,2.02-1.97.88-.59,1.9-1.08,3.04-1.47,1.14-.39,2.36-.64,3.64-.75,2.16-.19,3.93-.04,5.28.45,1.35.48,2.39,1.26,3.12,2.33.33.49.62,1.04.85,1.65.24.61.44,1.31.56,2.07.1.58.17,1.17.24,1.75.07.57.13,1.15.18,1.72.07.83.21,1.38.41,1.62.2.25.46.36.77.34.29-.02.55-.09.77-.21.22-.12.37-.27.44-.46.85,1.41,1.27,2.12,2.11,3.53-.13.37-.47.72-1.03,1.04-.56.32-1.31.52-2.25.58-.67.05-1.32,0-1.96-.16-.64-.16-1.18-.4-1.62-.72-.44-.32-.72-.72-.83-1.19-.13.43-.47.85-1,1.28-.54.43-1.25.8-2.15,1.11-.9.31-1.97.53-3.22.64ZM75.77,116.98c.49-.04.99-.15,1.51-.33.51-.18.98-.38,1.39-.62.42-.24.72-.45.9-.63-.05-.23-.1-.49-.15-.78-.05-.29-.07-.52-.07-.71-.24-.07-.69-.12-1.33-.16-.65-.04-1.3-.03-1.96.03-.59.05-1.15.15-1.7.3-.54.15-.98.35-1.31.61-.33.25-.48.57-.44.95.04.39.19.69.45.9.26.21.62.35,1.09.41.47.06,1.01.07,1.63.02Z"/>
    <path class="st2" d="M90.6,119.92c-.17-.16-.18-1.51-.3-2.58-.11-1.08-.23-2.25-.34-3.52-.11-1.27-.22-2.53-.32-3.79-.1-1.25-.19-2.4-.26-3.44-.08-1.04-.13-1.85-.17-2.43.32-.1.74-.21,1.28-.31.53-.1,1.1-.2,1.71-.3.61-.1,1.18-.18,1.72-.25.54-.07.98-.11,1.32-.13.02.18.04.39.06.63.02.24.04.48.05.71.02.24.03.46.04.66s.02.36.02.48c.06-.2.21-.45.45-.76.24-.31.58-.62,1.01-.94.43-.32.96-.59,1.58-.81.62-.22,1.34-.35,2.15-.38.79-.03,1.47.07,2.03.31s1.04.55,1.43.95c.39.4.7.83.93,1.29.11.22.21.44.28.68s.13.45.19.66c.26-.7.7-1.37,1.3-2.02.61-.65,1.36-1.19,2.26-1.62.9-.43,1.91-.66,3.02-.68,1.49-.03,2.72.18,3.68.62.96.44,1.7,1.11,2.23,2,.53.89.91,2,1.12,3.33.22,1.33.33,2.85.34,4.58,0,.63,0,1.28-.02,1.95-.02.67-.04,1.37-.07,2.07s-.06,1.42-.09,2.14c-.48.02-.97.05-1.48.07-.51.02-1.01.03-1.5.04-.52,0-1.04,0-1.57-.01-.52-.01-1.05-.04-1.57-.07.19-1.57.35-3.03.49-4.36.13-1.33.2-2.5.18-3.48-.02-1.31-.2-2.3-.53-2.99s-.89-1.02-1.67-1c-.72.01-1.31.23-1.76.64-.45.41-.8.98-1.04,1.71-.24.73-.41,1.58-.51,2.55-.1.97-.17,2.03-.19,3.15,0,.6-.01,1.24-.02,1.9-.01.66.13,1.91.01,2.04-.05.06-.6.04-1.07.07-.47.03-.97.05-1.49.07-.61.02-1.2.03-1.77.04-.56,0-1.17.03-1.23-.03-.17-.18-.08-1.4-.11-2.02-.03-.62-.06-1.28-.08-1.96-.05-1.2-.11-2.29-.2-3.27-.09-.98-.24-1.82-.44-2.52-.21-.7-.49-1.23-.86-1.59-.37-.36-.86-.53-1.47-.51-.4.02-.79.1-1.17.25-.37.15-.72.35-1.03.6-.31.25-.58.52-.8.83-.22.3-.43.67-.46.94-.12,1.38.31,3.23.46,4.63.15,1.4.28,2.54.38,3.43.1.88.16,1.4.18,1.55-.13.02-.41.04-.86.07-.45.03-.84.06-1.19.08-.82.04-1.65.07-2.48.09-.83.01-1.72.07-1.81,0Z"/>
    <path class="st2" d="M121.69,126.05c.12-1.78.23-3.65.32-5.6.09-1.95.17-3.87.23-5.77.06-1.9.11-3.67.15-5.32.04-1.65.07-3.07.08-4.28.02-1.2.03-2.08.03-2.62.82-.23,1.78-.4,2.86-.5,1.08-.1,2.13-.14,3.14-.13.04.36.08.77.1,1.22.03.45.04.87.03,1.25.22-.25.6-.57,1.14-.96.54-.38,1.24-.72,2.09-1.01s1.83-.42,2.93-.4c2.45.05,4.24.8,5.33,2.21,1.09,1.41,1.6,3.34,1.51,5.79-.06,1.72-.48,3.19-1.26,4.4-.78,1.22-1.8,2.14-3.07,2.77-1.27.63-2.68.93-4.22.9-.67-.01-1.36-.1-2.04-.27-.69-.16-1.3-.37-1.83-.61-.53-.25-.9-.49-1.09-.72,0,.27-.02.69-.05,1.28-.03.59-.06,1.26-.1,2-.04.74-.08,1.5-.12,2.26-.05.76-.09,1.47-.14,2.11-.05.64-.09,1.15-.14,1.54-.69.12-1.41.21-2.16.27-.75.06-1.46.11-2.12.14-.66.03-1.2.05-1.6.05ZM132.23,112.43c.69.01,1.29-.1,1.8-.33.5-.23.9-.58,1.19-1.05.29-.47.44-1.03.46-1.69.02-.9-.2-1.61-.65-2.1-.46-.5-1.23-.76-2.33-.78-.68-.01-1.28.07-1.82.23-.54.17-.99.37-1.35.62-.37.25-.66.49-.87.73,0,.14,0,.34-.02.61-.01.26-.03.55-.03.85,0,.3-.02.59-.04.86-.01.27-.03.48-.04.61.2.19.45.4.76.61.31.22.7.4,1.18.56.48.16,1.07.25,1.78.26Z"/>
    <path class="st2" d="M166.49,120.87c-.14-.52-.29-1.09-.44-1.7-.15-.61-.3-1.22-.44-1.85-.14-.62-.27-1.24-.38-1.84-.11-.6-.21-1.16-.3-1.67-.09-.51-.15-.96-.18-1.33.31-.02.46-.03.77-.05-.06.15-.16.41-.31.75-.14.34-.32.75-.54,1.23-.21.47-.45.97-.7,1.5-.25.53-.51,1.06-.77,1.59-.26.53-.52,1.04-.77,1.51-.25.47-.47.87-.67,1.21-2.78-.3-4.18-.44-6.97-.7-.05-.67-.1-1.57-.14-2.69-.04-1.12-.07-2.4-.1-3.84-.03-1.44-.04-2.98-.03-4.61,0-1.64.03-3.32.08-5.05.05-1.73.12-3.45.22-5.16,2.83.26,4.24.4,7.07.69-.06.83-.14,1.78-.25,2.87-.11,1.09-.22,2.22-.35,3.39-.13,1.17-.24,2.32-.36,3.42-.11,1.11-.22,2.1-.31,2.97-.09.87-.16,1.54-.2,2.01-.15.14-.23.2-.38.34.15-.3.33-.7.54-1.22.21-.51.44-1.09.68-1.72s.49-1.31.74-2.01c.25-.7.49-1.39.7-2.07.22-.68.41-1.3.57-1.88.16-.58.27-1.07.32-1.47,1.87.1,2.8.15,4.66.27,0,.23,0,.65.03,1.24.03.59.07,1.3.14,2.11.06.81.13,1.65.21,2.53.07.88.15,1.73.24,2.55.08.82.18,1.54.28,2.17.1.62.19,1.08.29,1.35-.35-.02-.53-.03-.88-.04.31-1.05.61-2.3.91-3.74.29-1.44.56-2.94.81-4.49.25-1.55.46-3.03.64-4.43.18-1.4.31-2.58.39-3.55,2.55-.01,3.83-.01,6.39,0-.18,1.81-.45,3.64-.81,5.51-.36,1.87-.76,3.68-1.21,5.42-.44,1.74-.87,3.34-1.29,4.8-.42,1.45-.79,2.67-1.11,3.66-.32.99-.54,1.65-.67,1.98-2.46,0-3.68,0-6.13.02Z"/>
    <path class="st2" d="M185.67,122.87c-3.07-.36-5.31-1.34-6.75-2.98-1.44-1.63-2.03-3.85-1.74-6.66.19-1.91.77-3.45,1.73-4.62.96-1.17,2.22-1.98,3.78-2.44,1.55-.46,3.3-.58,5.24-.35,1.95.23,3.53.83,4.73,1.78,1.2.95,2.03,2.17,2.5,3.63.47,1.47.58,3.11.33,4.91-.22,1.59-.75,2.92-1.58,4-.84,1.08-1.95,1.86-3.34,2.35-1.39.49-3.02.62-4.89.4ZM186.07,117.73c.54.06,1.03.04,1.49-.08.46-.12.86-.31,1.21-.59.35-.28.64-.63.87-1.07.23-.44.38-.94.45-1.51.1-.83.06-1.58-.14-2.25-.2-.67-.53-1.21-1-1.62-.47-.42-1.08-.67-1.82-.75-.83-.1-1.52.02-2.09.36s-.99.79-1.29,1.37c-.3.58-.48,1.18-.55,1.81-.13,1.13.05,2.1.53,2.92.48.82,1.26,1.29,2.34,1.42Z"/>
    <path class="st2" d="M205.85,125.64c-3.05-.48-5.26-1.54-6.63-3.23-1.38-1.69-1.88-3.93-1.49-6.72.27-1.9.9-3.42,1.91-4.55,1.01-1.13,2.3-1.9,3.87-2.3,1.57-.4,3.33-.45,5.26-.15,1.94.3,3.5.96,4.66,1.95,1.16.99,1.95,2.24,2.36,3.73.41,1.49.46,3.13.15,4.91-.28,1.58-.86,2.89-1.74,3.93-.88,1.04-2.03,1.78-3.43,2.22-1.41.43-3.04.5-4.91.21ZM206.44,120.52c.53.08,1.03.08,1.49-.02.46-.1.87-.28,1.24-.54.36-.26.67-.61.91-1.04.24-.43.41-.93.51-1.49.14-.83.12-1.58-.05-2.25-.17-.67-.49-1.23-.94-1.66-.45-.43-1.05-.71-1.79-.82-.82-.13-1.52-.04-2.1.28s-1.03.75-1.34,1.32c-.32.56-.53,1.16-.62,1.79-.17,1.12-.03,2.1.42,2.94.45.84,1.21,1.34,2.29,1.5Z"/>
    <path class="st2" d="M219.63,127.86c-.04-.05.01-.53.03-1.01.02-.48.04-1.05.06-1.72.02-.67.05-1.39.08-2.17.03-.78.07-1.55.11-2.32-.21,0-.53,0-.96.04-.42.03-.83.07-1.21.12-.08-.6-.1-1.35-.05-2.26.05-.91.14-1.78.27-2.6.11-.01.28-.03.5-.04.23-.01.46-.03.71-.04s.48-.02.7-.03c.22,0,.39,0,.51,0,0-.44.03-.88.07-1.31s.09-.86.17-1.27c.23-1.24.71-2.36,1.45-3.35.74-.99,1.73-1.72,2.97-2.19,1.24-.47,2.7-.55,4.39-.22,1.02.2,1.87.46,2.55.78.68.32,1.23.66,1.65,1.01.42.36.74.7.97,1.04.23.34.39.63.5.87-.38.4-.84.86-1.38,1.38-.54.52-1.05,1.01-1.54,1.47-.49.45-.84.77-1.06.96-.1-.22-.23-.43-.38-.64-.15-.21-.32-.41-.51-.6-.18-.19-.38-.35-.59-.48-.21-.13-.44-.22-.69-.27-.47-.09-.87-.07-1.2.06-.33.13-.6.35-.79.65-.2.3-.34.66-.42,1.08-.04.2-.07.41-.09.63s-.01.46.01.7c.36.06.82.15,1.38.27.55.12,1.09.24,1.6.35.52.12.9.22,1.13.3-.04.63-.13,1.37-.27,2.21-.14.84-.28,1.6-.42,2.28-.1-.02-.38-.07-.84-.15-.45-.08-.95-.16-1.49-.24-.54-.08-.98-.13-1.32-.17,0,.28-.01.7-.01,1.27,0,.57,0,1.19,0,1.87,0,.68,0,1.35,0,2.01s0,1.23.01,1.71c0,.49,0,.81.01.96-.52-.02-1.17-.08-1.97-.19-.79-.11-1.6-.23-2.44-.37-.84-.14-2.1-.23-2.23-.39Z"/>
    <path class="st2" d="M239.16,132.88c-1.43-.32-2.67-.75-3.73-1.29-1.06-.54-1.92-1.08-2.58-1.61-.66-.53-1.1-.96-1.32-1.27.1-.2.31-.48.62-.86.31-.38.67-.79,1.07-1.23.4-.44.81-.85,1.2-1.22.4-.37.73-.64,1.01-.8.49.54,1,1.07,1.55,1.59.55.53,1.11.98,1.68,1.37.58.39,1.12.64,1.65.76.35.08.68.11.99.11.3,0,.55-.08.75-.2.19-.12.33-.31.38-.57.07-.29-.06-.64-.37-1.04-.31-.4-.73-.82-1.24-1.24-.52-.42-1.06-.82-1.61-1.18-.81-.53-1.55-1.14-2.23-1.77-.68-.63-1.19-1.35-1.54-2.16-.35-.8-.41-1.72-.19-2.75.22-1.05.77-1.86,1.63-2.43.87-.57,1.92-.92,3.14-1.04,1.23-.12,2.48-.04,3.76.25,1.16.26,2.35.68,3.56,1.26,1.21.58,2.17,1.27,2.87,2.06-.12.19-.36.48-.71.86-.36.39-.78.79-1.27,1.22-.49.43-.99.82-1.51,1.15-.35-.48-.84-.98-1.46-1.48-.62-.5-1.3-.83-2.03-1-.33-.07-.66-.12-.99-.13s-.63.03-.88.13c-.25.1-.4.28-.46.54-.06.26.01.52.21.78.2.26.51.55.93.86.42.31.95.67,1.57,1.09.55.36,1.13.79,1.74,1.28.61.49,1.16,1.04,1.66,1.65.49.61.86,1.27,1.1,1.98.24.71.26,1.47.06,2.27-.31,1.31-.93,2.31-1.85,3.01-.91.7-2,1.12-3.25,1.27-1.25.15-2.56.08-3.92-.22Z"/>
    <path class="st2" d="M70.47,143.72c-.85.09-1.63.06-2.34-.09-.71-.14-1.31-.44-1.78-.88-.47-.44-.75-1.07-.85-1.88s.08-1.49.51-2.04c.43-.55,1.04-.98,1.81-1.29.77-.31,1.62-.51,2.55-.6.36-.04.71-.04,1.04-.03.34.02.64.05.89.1.26.05.45.1.57.15-.02-.16-.08-.33-.16-.52-.08-.18-.2-.34-.33-.45-.23-.25-.54-.44-.91-.59-.37-.14-.85-.19-1.44-.13-.58.06-1.09.24-1.51.53-.42.3-.74.62-.94.96-1.08-.51-1.62-.76-2.7-1.26.27-.45.65-.86,1.14-1.23.5-.37,1.08-.68,1.74-.92.66-.25,1.36-.41,2.11-.48,1.23-.12,2.25-.03,3.06.27.8.3,1.42.78,1.85,1.42.2.31.38.65.53,1.03.15.38.27.83.35,1.33.07.43.13.84.17,1.21.05.38.1.74.14,1.07.06.49.15.81.26.95.12.14.27.2.46.19.18-.02.33-.08.47-.18.13-.11.21-.24.24-.4.5.74.75,1.11,1.24,1.85-.05.31-.24.57-.57.81-.33.23-.76.37-1.29.42-.4.04-.77,0-1.13-.09-.36-.1-.66-.24-.91-.44-.25-.2-.41-.43-.47-.7-.09.26-.29.52-.62.79-.33.27-.75.51-1.28.71-.53.2-1.16.34-1.89.42ZM70.92,141.36c.32-.03.65-.11.98-.24.33-.13.63-.28.89-.45.26-.17.46-.34.6-.5-.04-.2-.07-.41-.1-.62-.03-.21-.04-.4-.05-.55-.16-.04-.45-.08-.88-.11-.43-.03-.88-.02-1.34.03-.42.04-.81.12-1.16.25-.36.12-.64.28-.85.48-.21.2-.3.44-.27.72.03.3.14.53.33.68.19.16.44.26.76.3.32.04.68.04,1.1,0Z"/>
    <path class="st2" d="M82.67,142.59c-.21.02-.46.03-.76.05-.3.02-.61.04-.92.06-.25.01-.55.03-.88.04-.33.01-.56.02-.69.02.02-.55.02-1.18,0-1.87-.02-.69-.04-1.46-.09-2.3-.05-.84-.11-1.76-.18-2.76-.07-1-.46-2.96-.25-3.23.05-.07.58-.11.94-.16.36-.05.73-.09,1.1-.12.26-.02.51-.03.75-.04.24,0,.46,0,.65,0,0,.06.01.18.03.36.02.18.03.37.05.59.01.21.02.4.03.57.16-.26.43-.54.83-.85.39-.3.85-.57,1.38-.79.53-.23,1.08-.36,1.66-.4,1.07-.07,1.9.07,2.49.44.59.36,1.02.94,1.27,1.73.26.79.43,1.78.5,2.98.03.42.05.91.06,1.46.01.56.01,1.15,0,1.76,0,.62-.03,1.21-.07,1.79-.14.02-.35.05-.65.07-.3.03-.61.05-.94.08-.35.02-.68.04-1,.05-.32.01-.55.02-.7.01.05-.37.1-.83.15-1.39.05-.55.08-1.14.11-1.77.02-.62.01-1.22-.03-1.8-.04-.55-.12-1.02-.24-1.42-.12-.4-.32-.7-.59-.91-.27-.21-.67-.29-1.18-.26-.42.03-.81.13-1.18.29-.37.16-.7.36-1,.58s-.7.49-.76.64c-.21.56.12,1.96.14,2.8.02.83.02,1.56.02,2.18,0,.62-.02,1.11-.05,1.49Z"/>
    <path class="st2" d="M100.48,141.35c-.01-.09-.02-.22-.04-.39-.01-.17-.03-.34-.04-.52-.01-.18-.02-.32-.03-.44-.08.11-.2.26-.37.42-.17.16-.39.33-.65.49-.27.16-.59.3-.98.42-.39.12-.84.19-1.36.21-.86.04-1.62-.12-2.27-.48-.65-.36-1.16-.88-1.53-1.55-.37-.67-.59-1.43-.64-2.29-.05-.85.07-1.65.37-2.4.3-.75.78-1.38,1.45-1.87.67-.49,1.52-.76,2.57-.81.52-.03,1,0,1.44.1.43.09.8.21,1.11.37.31.15.53.31.66.48,0-.36.01-.77.03-1.24.01-.47.03-.95.06-1.44.02-.49.04-.97.06-1.41.02-.45.04-.83.06-1.15.02-.32.02-.61.05-.64.1-.1.87-.01,1.38,0,.51.02.97.08,1.36.16-.06,1.5-.1,3-.11,4.49-.01,1.49,0,3.02.04,4.58.04,1.56.09,3.19.15,4.89-.16,0-.42.01-.78.02-.36,0-.73.01-1.1.02-.38,0-.68,0-.9-.01ZM97.73,138.65c.3-.01.57-.06.83-.14.26-.08.49-.18.69-.3.2-.12.39-.26.55-.4.16-.14.29-.28.39-.42,0-.13-.01-.29-.02-.48,0-.19-.02-.39-.03-.58,0-.2-.01-.38-.02-.56,0-.18,0-.31,0-.41-.15-.13-.36-.25-.64-.37s-.58-.21-.91-.28c-.33-.07-.66-.1-.98-.08-.68.03-1.2.25-1.56.65s-.52.91-.49,1.51c.03.64.24,1.12.62,1.44.38.32.9.46,1.57.43Z"/>
    <path class="st2" d="M125.47,150.95c-.17-.51-.35-1.06-.53-1.66-.18-.6-.37-1.2-.54-1.81-.18-.61-.34-1.21-.49-1.8-.15-.59-.28-1.14-.4-1.64-.12-.5-.21-.94-.26-1.31.29-.04.43-.07.72-.11-.04.16-.12.42-.23.77-.11.35-.25.78-.41,1.27s-.35,1.01-.55,1.55c-.2.55-.4,1.1-.61,1.65-.21.55-.41,1.07-.61,1.56-.2.49-.38.91-.54,1.26-2.63-.09-3.95-.12-6.58-.17-.1-.67-.21-1.56-.33-2.67-.12-1.11-.24-2.39-.37-3.82-.13-1.43-.26-2.96-.37-4.6-.11-1.63-.21-3.32-.3-5.04-.08-1.73-.14-3.45-.18-5.16,2.68.05,4.02.08,6.69.16,0,.83,0,1.79-.02,2.88-.02,1.09-.05,2.23-.08,3.41-.03,1.18-.06,2.33-.09,3.44-.03,1.11-.05,2.11-.07,2.99-.02.88-.04,1.55-.04,2.02-.13.15-.2.22-.33.37.12-.31.26-.73.42-1.25s.33-1.12.51-1.77.36-1.34.55-2.06c.19-.72.35-1.42.51-2.11.15-.69.29-1.33.4-1.92.11-.59.18-1.09.2-1.49,1.76-.04,2.64-.06,4.4-.09,0,.23.05.65.12,1.24.07.59.16,1.29.28,2.09.12.8.24,1.64.38,2.51.13.87.27,1.71.41,2.52.14.81.28,1.52.41,2.14.14.62.26,1.06.37,1.33-.33,0-.5.01-.83.02.22-1.07.41-2.34.58-3.8.17-1.46.31-2.98.44-4.54.12-1.56.22-3.05.28-4.46.07-1.41.1-2.6.11-3.57,2.4-.21,3.6-.31,6-.49-.04,1.82-.16,3.67-.37,5.56-.2,1.89-.45,3.72-.75,5.5-.29,1.77-.58,3.4-.87,4.88s-.55,2.73-.78,3.74c-.23,1.01-.39,1.68-.49,2.02-2.3.18-3.45.28-5.75.49Z"/>
    <path class="st2" d="M139.93,134.52c-1.1-.04-2.03-.36-2.77-.98-.74-.62-1.11-1.43-1.08-2.43.02-.68.21-1.26.59-1.73.38-.47.86-.83,1.45-1.07.59-.24,1.2-.35,1.84-.33,1.04.03,1.89.38,2.56,1.02.67.65.98,1.46.94,2.43-.04.9-.39,1.65-1.07,2.25-.68.6-1.49.88-2.45.85ZM141.5,151.02c-.19,0-.57.01-1.16.03-.59.02-1.21.01-1.87,0-.46-.01-.92-.04-1.4-.08-.48-.04-.95-.09-1.42-.16.05-.27.13-.83.22-1.68.1-.84.2-1.84.31-2.99.11-1.15.21-2.34.32-3.57.1-1.23.19-2.38.27-3.45.07-1.07.12-1.93.14-2.59.26-.01.63-.02,1.12-.03s1.02-.01,1.59-.01,1.12,0,1.63,0c.52,0,.92.02,1.21.03.07.34.1.91.11,1.69,0,.78,0,1.64-.04,2.59-.04.96-.09,1.98-.17,3.03-.07,1.05-.16,2.07-.25,3.03s-.19,1.82-.3,2.56c-.11.74-.22,1.27-.31,1.6Z"/>
    <path class="st2" d="M153.71,159.62c-1.69-.11-3.23-.35-4.61-.74-1.38-.39-2.47-1.01-3.27-1.85-.8-.84-1.17-2-1.1-3.48.04-.89.38-1.7,1.03-2.43.65-.72,1.56-1.31,2.73-1.75,1.17-.44,2.56-.65,4.13-.67.68,0,1.39,0,2.13.02.74.03,1.66.07,2.75.15,1.74.12,3.14.61,4.18,1.46,1.04.85,1.49,2.13,1.36,3.82-.12,1.48-.61,2.64-1.47,3.47-.86.83-1.97,1.4-3.34,1.7-1.36.3-2.87.4-4.52.3ZM155.2,147.52c-2.33-.15-4.15-.56-5.47-1.24-1.32-.68-2.25-1.51-2.78-2.5-.53-.99-.77-2-.72-3.05.06-1.39.5-2.53,1.33-3.42s1.92-1.54,3.3-1.95c1.38-.4,2.94-.55,4.68-.44,2.79.18,4.82.89,6.08,2.1,1.26,1.22,1.81,2.74,1.67,4.56-.11,1.43-.53,2.6-1.23,3.51-.71.91-1.65,1.57-2.81,1.97-1.17.41-2.51.56-4.04.46ZM150.27,150.32c-1.53-.41-2.58-.89-3.16-1.43-.57-.54-.84-1.13-.82-1.77.02-.51.16-.94.41-1.3.25-.36.54-.64.87-.84.33-.21.63-.34.9-.4,1.46.76,2.18,1.15,3.63,1.92-.39.11-.69.25-.89.44-.2.19-.3.39-.31.59-.01.27.12.52.41.76.29.24.72.38,1.3.41-.94.65-1.41.97-2.35,1.62ZM154.06,156.22c.66.04,1.24,0,1.76-.1.52-.11.93-.29,1.24-.55.31-.25.48-.6.51-1.03.03-.39-.07-.71-.28-.95-.21-.24-.49-.43-.84-.54-.35-.12-.73-.19-1.13-.22-.25-.02-.54-.04-.88-.06-.34-.02-.67-.04-.99-.06-.32-.02-.61-.04-.86-.05-.38-.02-.72,0-1.03.07-.3.07-.55.21-.73.42-.18.21-.28.53-.31.96-.02.41.11.77.4,1.07s.7.54,1.23.72c.54.18,1.17.29,1.91.34ZM154.97,143.26c.59.04,1.09,0,1.53-.13s.77-.35,1.02-.67c.25-.32.39-.74.43-1.26.03-.4-.07-.76-.3-1.08-.23-.32-.54-.58-.93-.77-.39-.2-.81-.31-1.26-.34-.77-.05-1.49.06-2.16.31-.67.26-1.03.78-1.07,1.57-.04.74.2,1.31.74,1.7.53.39,1.2.61,2.01.66ZM162.16,139.59c-1.25-1.17-1.88-1.75-3.14-2.91.16-.4.45-.83.87-1.28.42-.45.9-.86,1.44-1.23.54-.37,1.06-.64,1.57-.8.16.26.38.62.67,1.07.28.46.58.92.89,1.4.31.47.57.86.79,1.17-.29.1-.59.24-.9.4-.31.16-.61.35-.9.57-.29.22-.54.46-.77.73-.22.27-.39.57-.51.89Z"/>
    <path class="st2" d="M173.47,161.24c-1.69-.17-3.21-.48-4.58-.93-1.37-.45-2.43-1.11-3.19-1.98-.76-.88-1.09-2.05-.96-3.52.07-.89.45-1.68,1.13-2.38.68-.7,1.61-1.25,2.8-1.64,1.19-.39,2.58-.55,4.15-.5.68.02,1.39.05,2.13.1.74.05,1.65.14,2.75.26,1.74.19,3.11.73,4.12,1.63,1.01.89,1.41,2.19,1.2,3.87-.18,1.48-.72,2.61-1.61,3.41s-2.03,1.32-3.4,1.57c-1.37.25-2.88.29-4.53.12ZM175.44,149.21c-2.32-.24-4.12-.72-5.42-1.45-1.29-.73-2.19-1.6-2.68-2.61-.49-1.01-.69-2.03-.6-3.08.12-1.39.6-2.51,1.46-3.37s1.98-1.46,3.37-1.81c1.39-.35,2.96-.44,4.7-.26,2.78.29,4.78,1.08,5.99,2.34,1.21,1.27,1.7,2.81,1.48,4.62-.17,1.42-.63,2.57-1.37,3.45-.75.88-1.71,1.5-2.89,1.86-1.18.36-2.53.46-4.05.3ZM170.4,151.82c-1.51-.47-2.55-.99-3.1-1.55-.55-.56-.8-1.16-.74-1.8.04-.51.2-.93.46-1.28.26-.35.56-.61.9-.81.34-.19.64-.32.91-.37,1.42.82,2.13,1.23,3.55,2.06-.4.09-.7.23-.9.41-.21.18-.32.37-.34.58-.03.26.1.52.38.77s.71.4,1.29.46c-.97.61-1.45.91-2.41,1.53ZM173.95,157.87c.65.07,1.24.06,1.76-.03.52-.09.94-.26,1.26-.5.32-.24.51-.58.55-1.01.04-.39-.04-.71-.24-.96-.2-.25-.48-.44-.82-.58s-.72-.22-1.12-.26c-.25-.03-.54-.06-.88-.09-.34-.03-.67-.07-.99-.1-.32-.03-.61-.06-.86-.09-.38-.04-.72-.03-1.03.03-.31.06-.56.19-.74.39-.19.21-.3.52-.34.94-.04.41.08.77.35,1.08s.68.56,1.21.77c.53.2,1.16.34,1.89.42ZM175.38,144.95c.58.06,1.09.04,1.53-.07.44-.11.79-.32,1.05-.63.26-.31.42-.72.48-1.24.04-.4-.04-.77-.26-1.09-.22-.33-.52-.6-.9-.81-.38-.21-.8-.34-1.24-.39-.77-.08-1.49,0-2.17.23-.68.23-1.06.74-1.14,1.52-.07.74.15,1.32.67,1.73.52.41,1.18.66,1.98.74ZM182.72,141.57c-1.2-1.22-1.81-1.82-3.02-3.03.18-.4.49-.81.92-1.24.43-.43.93-.82,1.49-1.17.56-.35,1.09-.59,1.6-.74.15.26.36.63.62,1.1.26.47.54.95.83,1.43.29.48.54.88.74,1.2-.29.09-.6.21-.92.36-.32.15-.63.33-.92.53-.3.21-.56.44-.8.7-.23.26-.41.55-.54.87Z"/>
    <path class="st2" d="M195.04,155.24c-.37.25-1.02.45-1.95.61-.93.16-1.92.17-2.97.03-1.35-.18-2.35-.61-2.98-1.3-.64-.69-1.02-1.59-1.14-2.71-.12-1.12-.09-2.41.1-3.89.15-1.22.31-2.42.49-3.61.17-1.18.35-2.33.53-3.46.18-1.12.36-2.21.55-3.25.18-1.04.36-2.03.54-2.97.18-.94.31-2.48.5-2.63.25-.19,1.75.13,2.51.23.49.06.97.14,1.45.22.48.09,1,.19,1.57.33-.19.97-.4,2.02-.63,3.14-.23,1.12-.45,2.25-.68,3.4-.23,1.14-.44,2.24-.64,3.29-.2,1.05-.37,1.99-.52,2.81-.15.82-.25,1.48-.31,1.95-.09.63-.14,1.22-.15,1.76-.01.55.05.99.2,1.34s.41.55.79.6c.36.05.67.02.91-.09.25-.11.46-.27.64-.48.06.16.15.46.27.91.12.45.25.94.38,1.48.13.54.25,1.03.35,1.46s.17.71.2.83Z"/>
    <path class="st2" d="M212.22,156.03c-.38.32-.84.6-1.37.86-.53.25-1.13.45-1.8.58-.67.14-1.42.21-2.25.22-.83.01-1.74-.06-2.73-.23-1.63-.27-3.03-.79-4.22-1.59-1.19-.8-2.06-1.83-2.6-3.12-.55-1.28-.7-2.81-.44-4.57.27-1.81.87-3.33,1.82-4.56.95-1.23,2.18-2.12,3.68-2.64,1.5-.53,3.17-.64,5.02-.34,2.34.38,4.09,1.3,5.23,2.72,1.14,1.42,1.55,3.23,1.18,5.34-.07.41-.15.77-.24,1.07-.08.31-.2.64-.34.99-.16-.04-.53-.12-1.08-.23-.56-.11-1.2-.23-1.9-.36-.7-.13-1.35-.25-1.95-.36-.59-.11-1.01-.19-1.25-.23-.89-.15-1.74-.25-2.57-.31-.82-.06-1.49-.08-2.01-.08-.03.16-.04.32-.04.48s.01.31.04.46c.07.39.24.73.51,1.03.26.3.6.55,1.02.75.41.2.87.34,1.36.42.4.07.79.09,1.16.07.37-.02.73-.08,1.08-.18.35-.1.7-.23,1.02-.39.33-.16.67-.34,1.01-.56.06.06.21.26.45.6.24.33.52.74.82,1.23.3.48.58.98.84,1.5.26.52.44.99.54,1.42ZM203.15,146.04c.42,0,.94,0,1.56.05.62.05,1.34.14,2.15.27.45.07.86.15,1.23.23.37.08.63.14.8.17.03-.18.03-.39,0-.61-.04-.32-.15-.64-.34-.95-.19-.3-.45-.56-.78-.78-.33-.22-.73-.37-1.21-.45-.63-.1-1.19-.06-1.67.14-.48.2-.87.47-1.16.82-.29.35-.49.72-.58,1.1Z"/>
    <path class="st2" d="M221.42,161.69c-1.35-.27-2.52-.65-3.52-1.16-1-.51-1.82-1.01-2.45-1.52-.63-.51-1.05-.92-1.26-1.23.09-.2.28-.49.57-.88.29-.39.62-.81,1-1.27.37-.45.75-.87,1.12-1.26.37-.38.68-.66.94-.83.46.52.96,1.03,1.47,1.54.52.51,1.05.94,1.6,1.31.55.37,1.07.6,1.56.7.33.07.64.09.93.07.28-.02.52-.09.7-.22.18-.13.3-.33.36-.59.06-.29-.06-.63-.36-1.02-.3-.39-.69-.79-1.18-1.2-.49-.41-1.01-.78-1.53-1.12-.77-.5-1.48-1.08-2.12-1.69-.65-.61-1.14-1.31-1.47-2.1-.33-.79-.4-1.7-.21-2.74.2-1.05.7-1.88,1.52-2.48.81-.6,1.8-.98,2.95-1.14,1.16-.16,2.34-.12,3.55.12,1.1.22,2.22.6,3.37,1.14,1.15.54,2.06,1.2,2.72,1.96-.11.19-.33.49-.67.88-.33.4-.73.82-1.19,1.26-.46.45-.93.85-1.42,1.2-.34-.47-.8-.95-1.39-1.43-.59-.48-1.23-.79-1.93-.93-.31-.06-.62-.09-.93-.1-.31,0-.59.05-.82.16-.23.11-.38.3-.43.56-.05.26.02.52.2.77.19.25.49.53.89.83.4.3.9.64,1.49,1.03.52.34,1.07.75,1.65,1.22.58.47,1.11,1,1.58,1.59.47.59.82,1.24,1.05,1.94.23.7.25,1.46.08,2.27-.29,1.32-.86,2.34-1.72,3.06-.86.72-1.87,1.18-3.05,1.38-1.18.19-2.41.16-3.69-.09Z"/>
  </g>
</svg>